<svg width="50" height="51" viewBox="0 0 50 51" fill="none" xmlns="http://www.w3.org/2000/svg">
<g clip-path="url(#clip0_1_40)">
<path d="M44.9556 34.0208L42.6849 18.0625C42.1016 13.9583 38.581 10.9167 34.4354 10.9167H15.5614C11.4158 10.9167 7.8952 13.9583 7.3119 18.0625L5.04119 34.0208C4.58288 37.2292 7.06191 40.0833 10.2909 40.0833C11.7075 40.0833 13.0407 39.5208 14.0407 38.5208L18.7487 33.8333H31.248L35.9353 38.5208C36.9352 39.5208 38.2893 40.0833 39.6851 40.0833C42.9349 40.0833 45.4139 37.2292 44.9556 34.0208ZM22.9152 23.4167H18.7487V27.5833H16.6655V23.4167H12.4991V21.3333H16.6655V17.1667H18.7487V21.3333H22.9152V23.4167ZM31.248 21.3333C30.1023 21.3333 29.1648 20.3958 29.1648 19.25C29.1648 18.1042 30.1023 17.1667 31.248 17.1667C32.3938 17.1667 33.3313 18.1042 33.3313 19.25C33.3313 20.3958 32.3938 21.3333 31.248 21.3333ZM35.4145 27.5833C34.2687 27.5833 33.3313 26.6458 33.3313 25.5C33.3313 24.3542 34.2687 23.4167 35.4145 23.4167C36.5602 23.4167 37.4977 24.3542 37.4977 25.5C37.4977 26.6458 36.5602 27.5833 35.4145 27.5833Z" fill="#2A7AE4"/>
</g>
<defs>
<clipPath id="clip0_1_40">
<rect width="49.9972" height="50" fill="white" transform="translate(0 0.5)"/>
</clipPath>
</defs>
</svg>
